<svg xmlns="http://www.w3.org/2000/svg" xmlns:xlink="http://www.w3.org/1999/xlink" viewBox="0 0 98.12 105.44"><defs><style>.a{font-size:61px;font-family:Noteworthy-Bold, Noteworthy;font-weight:700;}.b{fill:url(#a);}</style><linearGradient id="a" x1="66.05" y1="79.85" x2="106.08" y2="79.85" gradientUnits="userSpaceOnUse"><stop offset="0" stop-color="#0081ff"/><stop offset="1"/></linearGradient></defs><title>seeme_sm_logo</title><text class="a" transform="translate(0 56.96)">S</text><path class="b" d="M109.11,45.72a2.37,2.37,0,0,1-.69,1.75l-1.22,1.37a13.87,13.87,0,0,0-.92,4,252.34,252.34,0,0,0-1.91,30.73q0,8.54,3,9.61v2.06a3,3,0,0,1-2.82,1.91q-3.89,0-5.87-6.79a34.67,34.67,0,0,1-1.45-10.07q0-11.51.61-19.21Q95.62,70,93.27,79,89,92.85,85.05,92.85q-4.49,0-7.91-8.16-3.19-7.39-7.83-24.86-.46,5.19-.46,10.6a156.51,156.51,0,0,0,.59,16.24,12.23,12.23,0,0,0,.85,2.94,9.59,9.59,0,0,1,.77,3.17q0,2.52-4.19,2.52-5,0-5-13.34,0-5.41.61-16.17t.61-16.09a2,2,0,0,0-.61-1.3,2,2,0,0,1-.61-1.3q0-4.27,7.63-4.27,1.75,0,4.19,2.21.23,2.36.76,7.17A139.21,139.21,0,0,0,78.08,70q3.74,14.26,6.48,14.26.61,0,1.6-2.36A79.72,79.72,0,0,0,89.9,69l2.75-13.27q.61-3.13,2.21-9,1.6-4.35,6.71-4.35a14.79,14.79,0,0,1,4.42.84Q109.11,44.28,109.11,45.72Z" transform="translate(-27.64 -16.16)"/><text class="a" transform="translate(32.3 78.9)">M</text></svg>